<?xml version="1.0" standalone="no"?>
<!DOCTYPE svg PUBLIC "-//W3C//DTD SVG 20010904//EN"
 "http://www.w3.org/TR/2001/REC-SVG-20010904/DTD/svg10.dtd">
<svg version="1.0" xmlns="http://www.w3.org/2000/svg"
 width="700.000000pt" height="700.000000pt" viewBox="0 0 700.000000 700.000000"
 preserveAspectRatio="xMidYMid meet">
<metadata>
Created by potrace 1.14, written by Peter Selinger 2001-2017
</metadata>
<g transform="translate(0.000000,700.000000) scale(0.100000,-0.100000)"
fill="#000000" stroke="none">
<path d="M4110 6120 c-43 -12 -92 -41 -116 -68 -30 -36 -48 -78 -78 -192 -14
-52 -53 -194 -86 -315 -34 -121 -64 -231 -66 -245 -3 -13 -25 -94 -49 -180
-24 -85 -71 -258 -105 -385 -34 -126 -68 -249 -76 -272 -7 -23 -15 -52 -18
-65 -2 -13 -29 -115 -61 -228 -31 -113 -58 -212 -60 -220 -4 -19 -71 -266 -91
-335 -8 -27 -70 -257 -139 -510 -147 -542 -179 -661 -211 -775 -80 -289 -146
-528 -150 -546 -2 -12 -31 -120 -65 -240 -33 -121 -62 -226 -64 -234 -2 -8
-15 -58 -29 -112 -33 -128 -23 -189 45 -258 103 -104 277 -77 346 54 13 25 63
193 78 262 6 25 108 404 130 479 21 74 90 324 124 450 16 61 50 187 76 280 25
94 62 229 81 300 19 72 41 153 50 180 15 55 263 961 269 985 2 8 33 125 70
260 37 135 84 309 105 387 21 78 40 146 44 151 3 5 8 22 10 39 3 16 30 119 60
229 30 109 84 305 119 434 35 129 77 282 93 340 42 151 33 219 -36 289 -53 53
-136 79 -200 61z"/>
<path d="M1897 5236 c-21 -8 -48 -22 -60 -33 -12 -10 -372 -367 -799 -794
-587 -586 -783 -787 -798 -820 -25 -56 -25 -122 0 -178 29 -63 1578 -1612
1641 -1641 146 -66 311 47 303 208 -1 28 -10 68 -21 87 -10 20 -333 350 -717
735 l-700 699 700 700 c384 385 707 716 718 736 88 170 -86 365 -267 301z"/>
<path d="M4957 5236 c-120 -43 -179 -189 -121 -300 10 -20 334 -351 719 -736
l699 -700 -699 -699 c-397 -397 -709 -717 -720 -738 -25 -49 -26 -134 -1 -185
55 -113 187 -159 298 -102 45 23 1614 1593 1629 1630 6 16 14 51 16 77 11 105
43 69 -821 934 -606 606 -802 797 -836 812 -52 24 -109 26 -163 7z"/>
</g>
</svg>
